<mxfile host="Electron" agent="Mozilla/5.0 (X11; Linux x86_64) AppleWebKit/537.36 (KHTML, like Gecko) draw.io/24.7.8 Chrome/128.0.6613.36 Electron/32.0.1 Safari/537.36" version="24.7.8">
  <diagram name="Page-1" id="xVI3YpWGyj0P_rc_zAgm">
    <mxGraphModel dx="1499" dy="592" grid="1" gridSize="10" guides="1" tooltips="1" connect="1" arrows="1" fold="1" page="1" pageScale="1" pageWidth="850" pageHeight="1100" math="0" shadow="0">
      <root>
        <mxCell id="0" />
        <mxCell id="1" parent="0" />
        <mxCell id="RTpVG28EA5E7koR21O4M-2" value="" style="edgeStyle=orthogonalEdgeStyle;rounded=0;orthogonalLoop=1;jettySize=auto;html=1;" parent="1" source="E3jHBzQT6of8C-LKY8fv-1" target="RTpVG28EA5E7koR21O4M-1" edge="1">
          <mxGeometry relative="1" as="geometry" />
        </mxCell>
        <mxCell id="E3jHBzQT6of8C-LKY8fv-1" value="main" style="ellipse;whiteSpace=wrap;html=1;fillColor=#60a917;fontColor=#ffffff;strokeColor=#2D7600;" parent="1" vertex="1">
          <mxGeometry x="365" y="40" width="120" height="80" as="geometry" />
        </mxCell>
        <mxCell id="RTpVG28EA5E7koR21O4M-4" value="" style="edgeStyle=orthogonalEdgeStyle;rounded=0;orthogonalLoop=1;jettySize=auto;html=1;" parent="1" source="RTpVG28EA5E7koR21O4M-1" target="RTpVG28EA5E7koR21O4M-3" edge="1">
          <mxGeometry relative="1" as="geometry" />
        </mxCell>
        <mxCell id="RTpVG28EA5E7koR21O4M-1" value="int opc = 1, userCount = 0, pos = 0&lt;br&gt;char dato[50], clear" style="whiteSpace=wrap;html=1;" parent="1" vertex="1">
          <mxGeometry x="288" y="150" width="275" height="60" as="geometry" />
        </mxCell>
        <mxCell id="RTpVG28EA5E7koR21O4M-6" value="" style="edgeStyle=orthogonalEdgeStyle;rounded=0;orthogonalLoop=1;jettySize=auto;html=1;" parent="1" source="RTpVG28EA5E7koR21O4M-3" target="RTpVG28EA5E7koR21O4M-5" edge="1">
          <mxGeometry relative="1" as="geometry" />
        </mxCell>
        <mxCell id="RTpVG28EA5E7koR21O4M-3" value="mientras opc != 0" style="rhombus;whiteSpace=wrap;html=1;" parent="1" vertex="1">
          <mxGeometry x="353" y="250" width="145" height="50" as="geometry" />
        </mxCell>
        <mxCell id="RTpVG28EA5E7koR21O4M-8" value="" style="edgeStyle=orthogonalEdgeStyle;rounded=0;orthogonalLoop=1;jettySize=auto;html=1;" parent="1" source="RTpVG28EA5E7koR21O4M-5" target="RTpVG28EA5E7koR21O4M-7" edge="1">
          <mxGeometry relative="1" as="geometry" />
        </mxCell>
        <mxCell id="RTpVG28EA5E7koR21O4M-5" value="Impresion de menu" style="shape=document;whiteSpace=wrap;html=1;boundedLbl=1;" parent="1" vertex="1">
          <mxGeometry x="365.5" y="330" width="120" height="35" as="geometry" />
        </mxCell>
        <mxCell id="RTpVG28EA5E7koR21O4M-10" value="" style="edgeStyle=orthogonalEdgeStyle;rounded=0;orthogonalLoop=1;jettySize=auto;html=1;" parent="1" source="RTpVG28EA5E7koR21O4M-7" target="RTpVG28EA5E7koR21O4M-9" edge="1">
          <mxGeometry relative="1" as="geometry" />
        </mxCell>
        <mxCell id="RTpVG28EA5E7koR21O4M-7" value="leer opc" style="shape=parallelogram;perimeter=parallelogramPerimeter;whiteSpace=wrap;html=1;fixedSize=1;" parent="1" vertex="1">
          <mxGeometry x="365" y="400" width="120" height="30" as="geometry" />
        </mxCell>
        <mxCell id="RTpVG28EA5E7koR21O4M-9" value="switch (opc)" style="shape=hexagon;perimeter=hexagonPerimeter2;whiteSpace=wrap;html=1;fixedSize=1;" parent="1" vertex="1">
          <mxGeometry x="365.5" y="460" width="120" height="40" as="geometry" />
        </mxCell>
        <mxCell id="RTpVG28EA5E7koR21O4M-11" value="case 3" style="rhombus;whiteSpace=wrap;html=1;" parent="1" vertex="1">
          <mxGeometry x="564.5" y="680" width="80" height="50" as="geometry" />
        </mxCell>
        <mxCell id="RTpVG28EA5E7koR21O4M-79" value="" style="edgeStyle=orthogonalEdgeStyle;rounded=0;orthogonalLoop=1;jettySize=auto;html=1;" parent="1" source="RTpVG28EA5E7koR21O4M-17" target="RTpVG28EA5E7koR21O4M-78" edge="1">
          <mxGeometry relative="1" as="geometry" />
        </mxCell>
        <mxCell id="RTpVG28EA5E7koR21O4M-17" value="case 2" style="rhombus;whiteSpace=wrap;html=1;" parent="1" vertex="1">
          <mxGeometry x="260" y="764.05" width="80" height="50" as="geometry" />
        </mxCell>
        <mxCell id="RTpVG28EA5E7koR21O4M-40" value="" style="edgeStyle=orthogonalEdgeStyle;rounded=0;orthogonalLoop=1;jettySize=auto;html=1;" parent="1" source="RTpVG28EA5E7koR21O4M-19" edge="1">
          <mxGeometry relative="1" as="geometry">
            <mxPoint x="-569.9905882352939" y="720.0062835945187" as="targetPoint" />
          </mxGeometry>
        </mxCell>
        <mxCell id="RTpVG28EA5E7koR21O4M-19" value="case 1" style="rhombus;whiteSpace=wrap;html=1;" parent="1" vertex="1">
          <mxGeometry x="-610.02" y="640" width="80" height="50" as="geometry" />
        </mxCell>
        <mxCell id="RTpVG28EA5E7koR21O4M-24" value="case 4" style="rhombus;whiteSpace=wrap;html=1;" parent="1" vertex="1">
          <mxGeometry x="539.5" y="559.99" width="80" height="50" as="geometry" />
        </mxCell>
        <mxCell id="RTpVG28EA5E7koR21O4M-25" value="case 5" style="rhombus;whiteSpace=wrap;html=1;" parent="1" vertex="1">
          <mxGeometry x="644.5" y="559.99" width="80" height="50" as="geometry" />
        </mxCell>
        <mxCell id="RTpVG28EA5E7koR21O4M-26" value="case 0" style="rhombus;whiteSpace=wrap;html=1;" parent="1" vertex="1">
          <mxGeometry x="744.5" y="559.99" width="80" height="50" as="geometry" />
        </mxCell>
        <mxCell id="RTpVG28EA5E7koR21O4M-28" value="" style="endArrow=classic;html=1;rounded=0;entryX=0.5;entryY=0;entryDx=0;entryDy=0;" parent="1" target="RTpVG28EA5E7koR21O4M-19" edge="1">
          <mxGeometry width="50" height="50" relative="1" as="geometry">
            <mxPoint x="-570.52" y="620" as="sourcePoint" />
            <mxPoint x="-520.52" y="560" as="targetPoint" />
          </mxGeometry>
        </mxCell>
        <mxCell id="RTpVG28EA5E7koR21O4M-29" value="" style="endArrow=classic;html=1;rounded=0;entryX=0.5;entryY=0;entryDx=0;entryDy=0;" parent="1" target="RTpVG28EA5E7koR21O4M-17" edge="1">
          <mxGeometry width="50" height="50" relative="1" as="geometry">
            <mxPoint x="300" y="744.05" as="sourcePoint" />
            <mxPoint x="514" y="734.05" as="targetPoint" />
          </mxGeometry>
        </mxCell>
        <mxCell id="RTpVG28EA5E7koR21O4M-30" value="" style="endArrow=classic;html=1;rounded=0;entryX=0.5;entryY=0;entryDx=0;entryDy=0;" parent="1" edge="1">
          <mxGeometry width="50" height="50" relative="1" as="geometry">
            <mxPoint x="604.36" y="660" as="sourcePoint" />
            <mxPoint x="604.36" y="680" as="targetPoint" />
          </mxGeometry>
        </mxCell>
        <mxCell id="RTpVG28EA5E7koR21O4M-31" value="" style="endArrow=classic;html=1;rounded=0;entryX=0.5;entryY=0;entryDx=0;entryDy=0;" parent="1" edge="1">
          <mxGeometry width="50" height="50" relative="1" as="geometry">
            <mxPoint x="579.36" y="539.99" as="sourcePoint" />
            <mxPoint x="579.36" y="559.99" as="targetPoint" />
          </mxGeometry>
        </mxCell>
        <mxCell id="RTpVG28EA5E7koR21O4M-32" value="" style="endArrow=classic;html=1;rounded=0;entryX=0.5;entryY=0;entryDx=0;entryDy=0;" parent="1" edge="1">
          <mxGeometry width="50" height="50" relative="1" as="geometry">
            <mxPoint x="784.36" y="539.99" as="sourcePoint" />
            <mxPoint x="784.36" y="559.99" as="targetPoint" />
          </mxGeometry>
        </mxCell>
        <mxCell id="RTpVG28EA5E7koR21O4M-33" value="" style="endArrow=classic;html=1;rounded=0;entryX=0.5;entryY=0;entryDx=0;entryDy=0;" parent="1" edge="1">
          <mxGeometry width="50" height="50" relative="1" as="geometry">
            <mxPoint x="684.36" y="539.99" as="sourcePoint" />
            <mxPoint x="684.36" y="559.99" as="targetPoint" />
          </mxGeometry>
        </mxCell>
        <mxCell id="RTpVG28EA5E7koR21O4M-36" value="" style="endArrow=none;html=1;rounded=0;entryX=0.5;entryY=1;entryDx=0;entryDy=0;" parent="1" target="RTpVG28EA5E7koR21O4M-9" edge="1">
          <mxGeometry width="50" height="50" relative="1" as="geometry">
            <mxPoint x="426" y="530" as="sourcePoint" />
            <mxPoint x="310" y="440" as="targetPoint" />
          </mxGeometry>
        </mxCell>
        <mxCell id="RTpVG28EA5E7koR21O4M-98" style="edgeStyle=orthogonalEdgeStyle;rounded=0;orthogonalLoop=1;jettySize=auto;html=1;exitX=0.5;exitY=1;exitDx=0;exitDy=0;entryX=0.5;entryY=0;entryDx=0;entryDy=0;" parent="1" source="RTpVG28EA5E7koR21O4M-39" target="RTpVG28EA5E7koR21O4M-47" edge="1">
          <mxGeometry relative="1" as="geometry" />
        </mxCell>
        <mxCell id="RTpVG28EA5E7koR21O4M-39" value="if userCount &amp;lt; MAXUser" style="rhombus;whiteSpace=wrap;html=1;" parent="1" vertex="1">
          <mxGeometry x="-667.14" y="720.01" width="194.25" height="50" as="geometry" />
        </mxCell>
        <mxCell id="EgIPgkw0lzjs8B0HULBI-32" style="edgeStyle=orthogonalEdgeStyle;rounded=0;orthogonalLoop=1;jettySize=auto;html=1;entryX=0;entryY=0.5;entryDx=0;entryDy=0;" edge="1" parent="1" source="RTpVG28EA5E7koR21O4M-45" target="2">
          <mxGeometry relative="1" as="geometry">
            <Array as="points">
              <mxPoint x="-750" y="1351" />
            </Array>
          </mxGeometry>
        </mxCell>
        <mxCell id="RTpVG28EA5E7koR21O4M-45" value="Limite de usuarios agregados" style="shape=document;whiteSpace=wrap;html=1;boundedLbl=1;" parent="1" vertex="1">
          <mxGeometry x="-780" y="1197.51" width="102" height="50" as="geometry" />
        </mxCell>
        <mxCell id="RTpVG28EA5E7koR21O4M-50" value="" style="edgeStyle=orthogonalEdgeStyle;rounded=0;orthogonalLoop=1;jettySize=auto;html=1;" parent="1" source="RTpVG28EA5E7koR21O4M-47" target="RTpVG28EA5E7koR21O4M-49" edge="1">
          <mxGeometry relative="1" as="geometry" />
        </mxCell>
        <mxCell id="RTpVG28EA5E7koR21O4M-47" value="Ingrese ID" style="shape=document;whiteSpace=wrap;html=1;boundedLbl=1;" parent="1" vertex="1">
          <mxGeometry x="-630" y="800.01" width="120" height="34.99" as="geometry" />
        </mxCell>
        <mxCell id="EgIPgkw0lzjs8B0HULBI-15" value="" style="edgeStyle=orthogonalEdgeStyle;rounded=0;orthogonalLoop=1;jettySize=auto;html=1;" edge="1" parent="1" source="RTpVG28EA5E7koR21O4M-49" target="EgIPgkw0lzjs8B0HULBI-14">
          <mxGeometry relative="1" as="geometry" />
        </mxCell>
        <mxCell id="RTpVG28EA5E7koR21O4M-49" value="leer ID" style="shape=parallelogram;perimeter=parallelogramPerimeter;whiteSpace=wrap;html=1;fixedSize=1;" parent="1" vertex="1">
          <mxGeometry x="-630" y="860.01" width="120" height="22.5" as="geometry" />
        </mxCell>
        <mxCell id="RTpVG28EA5E7koR21O4M-65" value="" style="edgeStyle=orthogonalEdgeStyle;rounded=0;orthogonalLoop=1;jettySize=auto;html=1;" parent="1" target="RTpVG28EA5E7koR21O4M-62" edge="1">
          <mxGeometry relative="1" as="geometry">
            <mxPoint x="704.57" y="1130.000375482436" as="sourcePoint" />
          </mxGeometry>
        </mxCell>
        <mxCell id="RTpVG28EA5E7koR21O4M-97" style="edgeStyle=orthogonalEdgeStyle;rounded=0;orthogonalLoop=1;jettySize=auto;html=1;entryX=0.5;entryY=0;entryDx=0;entryDy=0;" parent="1" source="RTpVG28EA5E7koR21O4M-55" target="RTpVG28EA5E7koR21O4M-76" edge="1">
          <mxGeometry relative="1" as="geometry" />
        </mxCell>
        <mxCell id="EgIPgkw0lzjs8B0HULBI-28" value="" style="edgeStyle=orthogonalEdgeStyle;rounded=0;orthogonalLoop=1;jettySize=auto;html=1;" edge="1" parent="1" source="RTpVG28EA5E7koR21O4M-55" target="EgIPgkw0lzjs8B0HULBI-27">
          <mxGeometry relative="1" as="geometry" />
        </mxCell>
        <mxCell id="RTpVG28EA5E7koR21O4M-55" value="else if buscar(dato, userCount, users, 0) != 0" style="rhombus;whiteSpace=wrap;html=1;" parent="1" vertex="1">
          <mxGeometry x="-414.99" y="1029.07" width="182.87" height="60.93" as="geometry" />
        </mxCell>
        <mxCell id="RTpVG28EA5E7koR21O4M-61" value="" style="edgeStyle=orthogonalEdgeStyle;rounded=0;orthogonalLoop=1;jettySize=auto;html=1;" parent="1" source="RTpVG28EA5E7koR21O4M-62" target="RTpVG28EA5E7koR21O4M-63" edge="1">
          <mxGeometry relative="1" as="geometry" />
        </mxCell>
        <mxCell id="RTpVG28EA5E7koR21O4M-62" value="Ingrese su nombre completo" style="shape=document;whiteSpace=wrap;html=1;boundedLbl=1;" parent="1" vertex="1">
          <mxGeometry x="644.5" y="1150.02" width="120" height="50" as="geometry" />
        </mxCell>
        <mxCell id="RTpVG28EA5E7koR21O4M-69" value="" style="edgeStyle=orthogonalEdgeStyle;rounded=0;orthogonalLoop=1;jettySize=auto;html=1;" parent="1" source="RTpVG28EA5E7koR21O4M-63" target="RTpVG28EA5E7koR21O4M-67" edge="1">
          <mxGeometry relative="1" as="geometry" />
        </mxCell>
        <mxCell id="RTpVG28EA5E7koR21O4M-63" value="leer nombreC" style="shape=parallelogram;perimeter=parallelogramPerimeter;whiteSpace=wrap;html=1;fixedSize=1;" parent="1" vertex="1">
          <mxGeometry x="644.5" y="1225.01" width="120" height="22.5" as="geometry" />
        </mxCell>
        <mxCell id="RTpVG28EA5E7koR21O4M-66" value="" style="edgeStyle=orthogonalEdgeStyle;rounded=0;orthogonalLoop=1;jettySize=auto;html=1;" parent="1" source="RTpVG28EA5E7koR21O4M-67" target="RTpVG28EA5E7koR21O4M-68" edge="1">
          <mxGeometry relative="1" as="geometry" />
        </mxCell>
        <mxCell id="RTpVG28EA5E7koR21O4M-67" value="Ingrese su correo electronico" style="shape=document;whiteSpace=wrap;html=1;boundedLbl=1;" parent="1" vertex="1">
          <mxGeometry x="644.5" y="1280.02" width="120" height="40" as="geometry" />
        </mxCell>
        <mxCell id="RTpVG28EA5E7koR21O4M-73" value="" style="edgeStyle=orthogonalEdgeStyle;rounded=0;orthogonalLoop=1;jettySize=auto;html=1;" parent="1" source="RTpVG28EA5E7koR21O4M-68" target="RTpVG28EA5E7koR21O4M-71" edge="1">
          <mxGeometry relative="1" as="geometry" />
        </mxCell>
        <mxCell id="RTpVG28EA5E7koR21O4M-68" value="leer email" style="shape=parallelogram;perimeter=parallelogramPerimeter;whiteSpace=wrap;html=1;fixedSize=1;" parent="1" vertex="1">
          <mxGeometry x="644.5" y="1340.02" width="120" height="22.5" as="geometry" />
        </mxCell>
        <mxCell id="RTpVG28EA5E7koR21O4M-70" value="" style="edgeStyle=orthogonalEdgeStyle;rounded=0;orthogonalLoop=1;jettySize=auto;html=1;" parent="1" source="RTpVG28EA5E7koR21O4M-71" target="RTpVG28EA5E7koR21O4M-72" edge="1">
          <mxGeometry relative="1" as="geometry" />
        </mxCell>
        <mxCell id="RTpVG28EA5E7koR21O4M-71" value="Ingrese ID" style="shape=document;whiteSpace=wrap;html=1;boundedLbl=1;" parent="1" vertex="1">
          <mxGeometry x="644.5" y="1390.02" width="120" height="34.99" as="geometry" />
        </mxCell>
        <mxCell id="RTpVG28EA5E7koR21O4M-72" value="leer ID" style="shape=parallelogram;perimeter=parallelogramPerimeter;whiteSpace=wrap;html=1;fixedSize=1;" parent="1" vertex="1">
          <mxGeometry x="644.5" y="1465.01" width="120" height="22.5" as="geometry" />
        </mxCell>
        <mxCell id="EgIPgkw0lzjs8B0HULBI-35" style="edgeStyle=orthogonalEdgeStyle;rounded=0;orthogonalLoop=1;jettySize=auto;html=1;entryX=1;entryY=0.5;entryDx=0;entryDy=0;" edge="1" parent="1" source="RTpVG28EA5E7koR21O4M-76" target="2">
          <mxGeometry relative="1" as="geometry">
            <Array as="points">
              <mxPoint x="-170" y="1351" />
            </Array>
          </mxGeometry>
        </mxCell>
        <mxCell id="RTpVG28EA5E7koR21O4M-76" value="ID de usuario ya registrado" style="shape=document;whiteSpace=wrap;html=1;boundedLbl=1;" parent="1" vertex="1">
          <mxGeometry x="-230.00000000000003" y="1225.01" width="120" height="50" as="geometry" />
        </mxCell>
        <mxCell id="RTpVG28EA5E7koR21O4M-81" value="" style="edgeStyle=orthogonalEdgeStyle;rounded=0;orthogonalLoop=1;jettySize=auto;html=1;" parent="1" source="RTpVG28EA5E7koR21O4M-78" target="RTpVG28EA5E7koR21O4M-80" edge="1">
          <mxGeometry relative="1" as="geometry" />
        </mxCell>
        <mxCell id="RTpVG28EA5E7koR21O4M-78" value="Ingrese su ID" style="shape=document;whiteSpace=wrap;html=1;boundedLbl=1;" parent="1" vertex="1">
          <mxGeometry x="239.99" y="844.06" width="120" height="35.01" as="geometry" />
        </mxCell>
        <mxCell id="RTpVG28EA5E7koR21O4M-96" style="edgeStyle=orthogonalEdgeStyle;rounded=0;orthogonalLoop=1;jettySize=auto;html=1;exitX=0.5;exitY=1;exitDx=0;exitDy=0;entryX=0.5;entryY=0;entryDx=0;entryDy=0;" parent="1" source="RTpVG28EA5E7koR21O4M-80" target="RTpVG28EA5E7koR21O4M-84" edge="1">
          <mxGeometry relative="1" as="geometry" />
        </mxCell>
        <mxCell id="RTpVG28EA5E7koR21O4M-80" value="leer ID" style="shape=parallelogram;perimeter=parallelogramPerimeter;whiteSpace=wrap;html=1;fixedSize=1;" parent="1" vertex="1">
          <mxGeometry x="239.99" y="901.55" width="120" height="22.5" as="geometry" />
        </mxCell>
        <mxCell id="RTpVG28EA5E7koR21O4M-82" value="" style="edgeStyle=orthogonalEdgeStyle;rounded=0;orthogonalLoop=1;jettySize=auto;html=1;" parent="1" source="RTpVG28EA5E7koR21O4M-84" target="RTpVG28EA5E7koR21O4M-85" edge="1">
          <mxGeometry relative="1" as="geometry" />
        </mxCell>
        <mxCell id="RTpVG28EA5E7koR21O4M-83" value="" style="edgeStyle=orthogonalEdgeStyle;rounded=0;orthogonalLoop=1;jettySize=auto;html=1;" parent="1" source="RTpVG28EA5E7koR21O4M-84" target="RTpVG28EA5E7koR21O4M-86" edge="1">
          <mxGeometry relative="1" as="geometry" />
        </mxCell>
        <mxCell id="RTpVG28EA5E7koR21O4M-84" value="if buscar(ID, 1) != 0" style="rhombus;whiteSpace=wrap;html=1;" parent="1" vertex="1">
          <mxGeometry x="220.19999999999996" y="955.3199999999999" width="152.87" height="40" as="geometry" />
        </mxCell>
        <mxCell id="RTpVG28EA5E7koR21O4M-85" value="registro(ID)" style="shape=process;whiteSpace=wrap;html=1;backgroundOutline=1;" parent="1" vertex="1">
          <mxGeometry x="236.62999999999997" y="1015.3199999999999" width="120" height="30" as="geometry" />
        </mxCell>
        <mxCell id="RTpVG28EA5E7koR21O4M-86" value="ID de usuario ya registrado" style="shape=document;whiteSpace=wrap;html=1;boundedLbl=1;" parent="1" vertex="1">
          <mxGeometry x="419.5" y="985.3199999999999" width="120" height="43.75" as="geometry" />
        </mxCell>
        <mxCell id="2" value="break" style="ellipse;whiteSpace=wrap;html=1;" parent="1" vertex="1">
          <mxGeometry x="-593.5699999999999" y="1327.7" width="47.14" height="47.14" as="geometry" />
        </mxCell>
        <mxCell id="EgIPgkw0lzjs8B0HULBI-17" value="" style="edgeStyle=orthogonalEdgeStyle;rounded=0;orthogonalLoop=1;jettySize=auto;html=1;" edge="1" parent="1" source="EgIPgkw0lzjs8B0HULBI-14" target="EgIPgkw0lzjs8B0HULBI-16">
          <mxGeometry relative="1" as="geometry" />
        </mxCell>
        <mxCell id="EgIPgkw0lzjs8B0HULBI-14" value="limpiar buffer" style="whiteSpace=wrap;html=1;" vertex="1" parent="1">
          <mxGeometry x="-630" y="910.01" width="120" height="26.25" as="geometry" />
        </mxCell>
        <mxCell id="EgIPgkw0lzjs8B0HULBI-19" value="" style="edgeStyle=orthogonalEdgeStyle;rounded=0;orthogonalLoop=1;jettySize=auto;html=1;" edge="1" parent="1" source="EgIPgkw0lzjs8B0HULBI-16" target="EgIPgkw0lzjs8B0HULBI-18">
          <mxGeometry relative="1" as="geometry" />
        </mxCell>
        <mxCell id="EgIPgkw0lzjs8B0HULBI-25" style="edgeStyle=orthogonalEdgeStyle;rounded=0;orthogonalLoop=1;jettySize=auto;html=1;entryX=0.5;entryY=0;entryDx=0;entryDy=0;" edge="1" parent="1" source="EgIPgkw0lzjs8B0HULBI-16" target="RTpVG28EA5E7koR21O4M-55">
          <mxGeometry relative="1" as="geometry" />
        </mxCell>
        <mxCell id="EgIPgkw0lzjs8B0HULBI-16" value="if userCount == 0" style="rhombus;whiteSpace=wrap;html=1;" vertex="1" parent="1">
          <mxGeometry x="-638.5699999999999" y="963.76" width="137.14" height="40.62" as="geometry" />
        </mxCell>
        <mxCell id="EgIPgkw0lzjs8B0HULBI-22" value="" style="edgeStyle=orthogonalEdgeStyle;rounded=0;orthogonalLoop=1;jettySize=auto;html=1;" edge="1" parent="1" source="EgIPgkw0lzjs8B0HULBI-18" target="EgIPgkw0lzjs8B0HULBI-21">
          <mxGeometry relative="1" as="geometry" />
        </mxCell>
        <mxCell id="EgIPgkw0lzjs8B0HULBI-18" value="registro (dato, userCount, users, clear)" style="shape=process;whiteSpace=wrap;html=1;backgroundOutline=1;" vertex="1" parent="1">
          <mxGeometry x="-705.02" y="1029.07" width="270" height="25.32" as="geometry" />
        </mxCell>
        <mxCell id="EgIPgkw0lzjs8B0HULBI-24" value="" style="edgeStyle=orthogonalEdgeStyle;rounded=0;orthogonalLoop=1;jettySize=auto;html=1;" edge="1" parent="1" source="EgIPgkw0lzjs8B0HULBI-21" target="EgIPgkw0lzjs8B0HULBI-23">
          <mxGeometry relative="1" as="geometry" />
        </mxCell>
        <mxCell id="EgIPgkw0lzjs8B0HULBI-21" value="Registro exitoso!!" style="shape=document;whiteSpace=wrap;html=1;boundedLbl=1;" vertex="1" parent="1">
          <mxGeometry x="-630" y="1078.01" width="120" height="32.02" as="geometry" />
        </mxCell>
        <mxCell id="EgIPgkw0lzjs8B0HULBI-33" style="edgeStyle=orthogonalEdgeStyle;rounded=0;orthogonalLoop=1;jettySize=auto;html=1;entryX=0.5;entryY=0;entryDx=0;entryDy=0;" edge="1" parent="1" source="EgIPgkw0lzjs8B0HULBI-23" target="2">
          <mxGeometry relative="1" as="geometry" />
        </mxCell>
        <mxCell id="EgIPgkw0lzjs8B0HULBI-23" value="userCount++" style="whiteSpace=wrap;html=1;" vertex="1" parent="1">
          <mxGeometry x="-630" y="1136.06" width="120" height="23.97" as="geometry" />
        </mxCell>
        <mxCell id="EgIPgkw0lzjs8B0HULBI-30" value="" style="edgeStyle=orthogonalEdgeStyle;rounded=0;orthogonalLoop=1;jettySize=auto;html=1;" edge="1" parent="1" source="EgIPgkw0lzjs8B0HULBI-27" target="EgIPgkw0lzjs8B0HULBI-29">
          <mxGeometry relative="1" as="geometry" />
        </mxCell>
        <mxCell id="EgIPgkw0lzjs8B0HULBI-27" value="registro(dato, userCount, users, clear)" style="shape=process;whiteSpace=wrap;html=1;backgroundOutline=1;" vertex="1" parent="1">
          <mxGeometry x="-456.78" y="1120.48" width="266.45" height="29.54" as="geometry" />
        </mxCell>
        <mxCell id="EgIPgkw0lzjs8B0HULBI-34" style="edgeStyle=orthogonalEdgeStyle;rounded=0;orthogonalLoop=1;jettySize=auto;html=1;entryX=1;entryY=0.5;entryDx=0;entryDy=0;" edge="1" parent="1" source="EgIPgkw0lzjs8B0HULBI-29" target="2">
          <mxGeometry relative="1" as="geometry">
            <Array as="points">
              <mxPoint x="-324" y="1351" />
            </Array>
          </mxGeometry>
        </mxCell>
        <mxCell id="EgIPgkw0lzjs8B0HULBI-29" value="userCount++" style="whiteSpace=wrap;html=1;" vertex="1" parent="1">
          <mxGeometry x="-383.56" y="1184.37" width="120" height="25.66" as="geometry" />
        </mxCell>
        <mxCell id="EgIPgkw0lzjs8B0HULBI-31" style="edgeStyle=orthogonalEdgeStyle;rounded=0;orthogonalLoop=1;jettySize=auto;html=1;entryX=0.333;entryY=-0.001;entryDx=0;entryDy=0;entryPerimeter=0;" edge="1" parent="1" source="RTpVG28EA5E7koR21O4M-39" target="RTpVG28EA5E7koR21O4M-45">
          <mxGeometry relative="1" as="geometry" />
        </mxCell>
      </root>
    </mxGraphModel>
  </diagram>
</mxfile>
